<svg width="27" height="35" viewBox="0 0 27 35" fill="none" xmlns="http://www.w3.org/2000/svg">
<path d="M23.6259 23.3449L18.4374 19.9724L20.3935 16.3862C20.8495 15.5487 21.0887 14.6105 21.0895 13.6569V7.97979C21.0895 5.86342 20.2487 3.83373 18.7522 2.33723C17.2557 0.840726 15.226 0 13.1097 0C10.9933 0 8.9636 0.840726 7.4671 2.33723C5.9706 3.83373 5.12987 5.86342 5.12987 7.97979V13.6569C5.13058 14.6105 5.36983 15.5488 5.82583 16.3863L7.78194 19.9724L2.59344 23.3449C1.79604 23.8611 1.14082 24.569 0.687747 25.4039C0.234676 26.2388 -0.0017822 27.174 1.01136e-05 28.1239V34.1991H26.2193V28.1239C26.2211 27.174 25.9846 26.2388 25.5316 25.4039C25.0785 24.5691 24.4233 23.8611 23.6259 23.3449ZM23.9394 31.9192H2.27995V28.1239C2.27888 27.554 2.42077 26.9929 2.69263 26.4919C2.96448 25.991 3.35762 25.5662 3.83608 25.2565L10.7942 20.7337L7.8274 15.2946C7.55381 14.792 7.41025 14.2291 7.40981 13.6569V7.97979C7.40981 6.4681 8.01033 5.01832 9.07926 3.94939C10.1482 2.88046 11.598 2.27994 13.1097 2.27994C14.6214 2.27994 16.0711 2.88046 17.1401 3.94939C18.209 5.01832 18.8095 6.4681 18.8095 7.97979V13.6569C18.8091 14.2291 18.6655 14.792 18.3919 15.2946L15.4252 20.7337L22.3835 25.2565C22.8619 25.5662 23.255 25.991 23.5268 26.4919C23.7986 26.9929 23.9405 27.554 23.9394 28.1239V31.9192Z" fill="white"/>
</svg>
